<svg width="32" height="31" viewBox="0 0 32 31" fill="none" xmlns="http://www.w3.org/2000/svg">
<rect width="32" height="31" rx="4" fill="#006AFF"/>
<path d="M24 16.4487C24 21.1979 20.5 23.5725 16.34 24.9498C16.1222 25.0199 15.8855 25.0165 15.67 24.9403C11.5 23.5725 8 21.1979 8 16.4487V9.79979C8 9.54788 8.10536 9.30628 8.29289 9.12815C8.48043 8.95002 8.73478 8.84995 9 8.84995C11 8.84995 13.5 7.71014 15.24 6.26638C15.4519 6.09446 15.7214 6 16 6C16.2786 6 16.5481 6.09446 16.76 6.26638C18.51 7.71964 21 8.84995 23 8.84995C23.2652 8.84995 23.5196 8.95002 23.7071 9.12815C23.8946 9.30628 24 9.54788 24 9.79979V16.4487Z" stroke="white" stroke-width="2" stroke-linecap="round" stroke-linejoin="round"/>
</svg>
